# xmcd
#
# Track frame offsets: 
#        150
#        20305
#        39570
#        56962
#        78875
#        94975
#        113860
#        133357
#        150112
#        166120
#        184630
#
# Disc length: 2710 seconds
#
# Revision: 2
# Processed by: cddbd v1.5.1PL2 Copyright (c) Steve Scherf et al.
# Submitted via: ExactAudioCopy v0.95b3
#
DISCID=830a940b
DTITLE=Q.STONE - No Substitute
DYEAR=1993
DGENRE=
TTITLE0=Free As The Wind
TTITLE1=No Substitute For Pride
TTITLE2=Machine
TTITLE3=Off The Hook
TTITLE4=Waiting
TTITLE5=The River
TTITLE6=Desert Heat
TTITLE7=Easy Way Out
TTITLE8=Lousy Clown
TTITLE9=Can t Find It
TTITLE10=Back On My Feet
EXTD=
EXTT0=
EXTT1=
EXTT2=
EXTT3=
EXTT4=
EXTT5=
EXTT6=
EXTT7=
EXTT8=
EXTT9=
EXTT10=
PLAYORDER=
